<svg xmlns="http://www.w3.org/2000/svg" xmlns:xlink="http://www.w3.org/1999/xlink" width="1000" zoomAndPan="magnify" viewBox="0 0 750 149.999998" height="200" preserveAspectRatio="xMidYMid meet" version="1.0"><defs><g/></defs><path fill="#5bcefa" d="M 369.851562 6.558594 C 359.875 15.601562 352.394531 26.414062 344.738281 37.230469 C 337.257812 47.867188 331.914062 59.566406 326.925781 71.621094 C 325.679688 73.925781 325.5 76.761719 326.570312 79.246094 C 332.445312 92.542969 337.789062 106.015625 344.378906 118.957031 C 347.765625 125.691406 353.285156 131.542969 357.738281 137.75 C 358.273438 138.457031 359.164062 138.988281 359.34375 139.875 C 359.699219 140.761719 359.875 141.824219 359.519531 142.890625 C 359.34375 143.421875 357.738281 143.777344 357.027344 143.597656 C 354.355469 143.242188 351.683594 142.535156 349.191406 141.472656 C 339.394531 137.039062 330.488281 131.542969 323.363281 123.210938 C 314.992188 113.816406 307.332031 103.710938 300.386719 93.074219 C 298.070312 89.171875 295.933594 85.09375 293.617188 80.839844 C 291.480469 81.550781 289.164062 82.257812 286.847656 82.96875 C 286.492188 83.144531 286.136719 83.855469 285.78125 84.210938 C 285.601562 84.386719 285.78125 84.742188 285.78125 85.09375 C 285.78125 90.058594 285.78125 90.058594 281.328125 92.363281 C 276.519531 94.847656 271.710938 96.972656 266.898438 99.277344 C 264.40625 100.519531 263.515625 99.632812 263.515625 96.972656 C 263.871094 88.285156 263.335938 79.601562 261.734375 71.089844 C 260.84375 64.707031 259.242188 58.503906 256.746094 52.476562 C 256.570312 51.765625 256.390625 50.878906 256.390625 50.171875 C 256.570312 49.992188 256.746094 49.640625 256.925781 49.460938 C 263.335938 50.703125 269.75 51.765625 276.164062 53.007812 C 279.546875 53.714844 282.929688 55.136719 286.316406 56.019531 C 287.5625 56.375 287.5625 57.085938 287.382812 58.148438 C 286.847656 60.984375 286.492188 63.644531 286.136719 66.480469 C 288.273438 66.65625 290.410156 65.417969 291.300781 63.46875 C 300.5625 48.929688 311.785156 35.632812 324.609375 23.933594 C 330.488281 18.082031 337.257812 12.941406 344.378906 8.863281 C 349.367188 6.382812 354.535156 4.078125 359.699219 2.304688 C 362.726562 1.417969 366.109375 1.773438 368.960938 3.015625 C 370.03125 3.367188 370.5625 4.609375 370.207031 5.496094 C 370.386719 6.027344 370.027344 6.203125 369.851562 6.558594 Z M 184.789062 117.894531 C 185.679688 120.199219 185.144531 121.617188 182.652344 122.148438 C 179.445312 122.855469 176.417969 123.386719 173.210938 124.097656 C 172.140625 124.453125 171.074219 123.921875 170.71875 122.855469 C 170.71875 122.855469 170.71875 122.679688 170.71875 122.679688 C 169.648438 120.019531 168.757812 117.359375 167.867188 114.523438 C 166.621094 109.207031 165.550781 103.886719 164.484375 98.746094 C 164.128906 97.328125 164.128906 95.734375 163.949219 94.136719 C 161.457031 94.492188 159.316406 94.667969 157.179688 95.023438 C 155.933594 95.199219 156.113281 95.910156 156.113281 96.796875 C 156.289062 102.824219 157.179688 109.027344 158.960938 114.878906 C 159.851562 118.425781 161.097656 121.96875 162.167969 125.871094 C 159.675781 126.402344 157.359375 126.757812 155.042969 127.113281 C 152.015625 127.464844 148.808594 127.644531 145.78125 127.820312 C 143.109375 127.820312 140.617188 127.996094 138.121094 127.996094 C 136.699219 127.996094 135.449219 127.289062 134.917969 126.046875 C 130.285156 117.359375 128.683594 107.964844 126.367188 98.570312 C 124.230469 90.414062 122.984375 82.082031 123.160156 73.75 C 123.339844 65.417969 125.476562 57.085938 129.214844 49.640625 C 133.136719 42.015625 139.011719 36.164062 144.890625 30.492188 C 155.222656 20.210938 166.800781 11.347656 179.445312 4.253906 C 182.117188 2.835938 184.96875 1.59375 187.996094 0.710938 C 190.488281 0 191.558594 1.242188 190.667969 3.722656 C 188.707031 9.21875 186.214844 14.539062 184.609375 20.210938 C 182.652344 26.414062 181.40625 32.796875 179.980469 39.003906 C 177.128906 51.234375 175.703125 63.820312 175.882812 76.410156 C 175.882812 88.109375 178.734375 99.277344 182.117188 110.445312 C 182.652344 112.929688 183.71875 115.410156 184.789062 117.894531 Z M 161.988281 54.070312 C 159.316406 55.667969 153.441406 69.671875 153.976562 72.6875 C 155.753906 72.332031 157.714844 71.976562 159.496094 71.800781 C 160.742188 71.621094 160.921875 71.089844 160.921875 70.203125 C 161.097656 67.011719 161.277344 63.644531 161.457031 60.453125 C 161.632812 58.324219 161.8125 56.375 161.988281 54.070312 Z M 279.546875 116.652344 C 280.082031 117.007812 280.082031 118.070312 280.257812 118.601562 C 279.546875 118.777344 278.832031 118.957031 278.121094 118.957031 C 261.734375 114.347656 245.171875 109.558594 228.785156 104.773438 C 224.507812 103.53125 220.589844 101.582031 216.492188 99.988281 C 215.957031 99.808594 215.246094 99.457031 214.355469 99.101562 C 214.535156 99.808594 214.890625 100.519531 215.246094 101.226562 C 217.207031 104.417969 218.988281 107.609375 220.945312 110.800781 C 222.191406 112.75 222.015625 113.105469 220.054688 113.636719 C 214.890625 115.054688 209.546875 116.652344 204.382812 117.894531 C 200.640625 118.777344 196.722656 118.957031 192.980469 119.488281 C 192.089844 119.664062 191.558594 119.3125 191.023438 118.246094 C 187.105469 108.851562 185.5 98.921875 184.253906 88.996094 C 183.1875 81.550781 182.472656 74.105469 182.117188 66.65625 C 182.117188 59.566406 183.1875 52.476562 183.898438 45.382812 C 184.078125 43.964844 184.789062 43.433594 186.214844 43.433594 C 199.039062 42.371094 212.039062 42.371094 224.863281 43.257812 C 232.523438 43.964844 240.183594 45.382812 247.484375 48.042969 C 254.433594 50.527344 256.570312 55.667969 256.925781 62.226562 C 257.28125 71.265625 253.542969 78.359375 246.949219 84.210938 C 246.0625 85.09375 245.171875 85.804688 243.746094 87.046875 C 248.730469 91.125 253.363281 94.847656 257.996094 98.746094 C 265.117188 104.597656 272.421875 110.625 279.546875 116.652344 Z M 228.785156 68.609375 L 228.605469 67.898438 C 222.550781 68.609375 216.671875 69.140625 210.617188 70.027344 C 210.082031 70.203125 209.726562 70.734375 209.546875 71.265625 C 209.546875 73.75 209.902344 76.230469 210.4375 78.535156 C 211.328125 81.90625 213.289062 82.613281 216.316406 80.664062 C 218.097656 79.601562 219.699219 78.535156 221.300781 77.296875 C 224.332031 74.992188 226.824219 71.976562 228.785156 68.609375 Z M 131.175781 129.0625 C 122.269531 112.75 119.242188 95.023438 117.996094 76.761719 C 117.460938 70.734375 117.640625 64.53125 118.886719 58.503906 C 119.777344 54.78125 120.132812 51.058594 120.84375 47.15625 C 120.84375 46.269531 120.84375 45.5625 120.84375 44.675781 C 114.078125 46.269531 107.664062 47.6875 101.429688 49.285156 C 101.074219 49.460938 100.539062 50.171875 100.539062 50.703125 C 99.828125 55.84375 99.113281 60.984375 98.582031 66.125 C 98.046875 72.332031 98.222656 72.332031 91.992188 71.976562 C 91.8125 71.976562 91.457031 71.976562 91.277344 71.800781 C 91.277344 71.265625 91.277344 70.914062 91.277344 70.382812 C 91.992188 64.707031 92.703125 59.210938 93.414062 53.539062 C 93.59375 52.476562 93.238281 51.765625 91.992188 51.945312 C 91.277344 51.945312 90.742188 51.945312 90.03125 52.121094 C 85.933594 53.183594 81.835938 54.425781 77.5625 55.667969 C 77.027344 55.84375 76.496094 56.375 76.316406 56.90625 C 75.425781 60.984375 74.535156 65.238281 74 69.316406 C 72.933594 79.777344 72.933594 90.414062 74 101.050781 C 74.714844 107.433594 76.316406 113.636719 78.808594 119.664062 C 79.164062 120.550781 79.878906 121.792969 80.589844 121.96875 C 83.976562 122.855469 87.359375 123.386719 91.101562 124.097656 C 89.675781 114.523438 89.140625 104.773438 89.851562 95.199219 L 96.800781 95.199219 C 96.800781 95.554688 96.976562 95.910156 96.976562 96.265625 C 97.15625 104.066406 97.332031 112.042969 97.332031 119.84375 C 97.15625 122.148438 98.222656 124.453125 99.828125 126.046875 C 103.390625 129.417969 106.953125 132.785156 110.691406 135.976562 C 119.777344 143.597656 130.820312 146.613281 142.21875 148.917969 C 142.753906 149.09375 143.464844 148.5625 144.179688 148.386719 C 144 147.675781 143.820312 146.613281 143.464844 146.257812 C 138.121094 141.648438 134.738281 135.445312 131.175781 129.0625 Z M 71.507812 109.738281 C 69.902344 103.355469 68.835938 96.617188 67.765625 90.058594 C 67.230469 87.222656 66.875 86.691406 64.027344 86.515625 C 60.820312 86.335938 57.613281 86.335938 54.40625 86.335938 C 51.914062 86.335938 49.242188 86.515625 46.75 86.691406 C 46.75 86.515625 46.570312 86.335938 46.570312 86.160156 C 50.132812 84.5625 53.515625 82.96875 57.078125 81.726562 C 59.574219 80.664062 62.246094 80.132812 64.738281 79.066406 C 66.519531 78.359375 67.945312 76.941406 68.300781 74.992188 C 69.371094 71.089844 70.617188 67.367188 71.863281 63.46875 C 72.398438 61.515625 73.109375 59.566406 73.644531 57.617188 C 74 56.019531 73.464844 55.488281 71.863281 55.667969 C 69.011719 56.019531 66.164062 56.554688 63.3125 57.085938 C 51.558594 60.453125 39.980469 64.707031 28.757812 69.847656 C 19.675781 73.570312 11.125 78.359375 3.109375 84.03125 C 0.4375 85.980469 0.4375 87.933594 3.644531 89.351562 C 8.453125 91.65625 13.261719 93.605469 18.25 95.199219 C 24.839844 97.328125 31.609375 98.921875 38.378906 100.339844 C 41.582031 101.050781 43.007812 103 44.433594 105.484375 C 44.078125 105.484375 43.898438 105.484375 43.542969 105.484375 C 38.910156 104.066406 34.457031 102.46875 29.828125 101.050781 C 28.9375 100.695312 28.046875 100.695312 27.15625 100.519531 L 26.265625 101.40625 C 26.976562 102.46875 27.335938 104.066406 28.226562 104.773438 C 31.964844 107.433594 36.0625 109.738281 40.335938 111.6875 C 48.351562 114.703125 56.722656 116.828125 64.738281 119.3125 C 67.765625 120.199219 70.792969 121.082031 73.824219 121.96875 C 74.535156 122.148438 75.246094 121.617188 76.136719 121.4375 C 75.960938 120.730469 75.78125 120.019531 75.605469 119.488281 C 74 116.296875 72.574219 113.105469 71.507812 109.738281 Z M 71.507812 109.738281 " fill-opacity="1" fill-rule="nonzero"/><g fill="#f5a9b8" fill-opacity="1"><g transform="translate(346.967842, 121.58684)"><g><path d="M 32.96875 0.546875 C 27.914062 0.546875 23.351562 -0.695312 19.28125 -3.1875 C 15.21875 -5.675781 12.015625 -9.28125 9.671875 -14 C 7.328125 -18.726562 6.15625 -24.316406 6.15625 -30.765625 C 6.15625 -41.898438 8.535156 -52.210938 13.296875 -61.703125 C 18.054688 -71.191406 25.085938 -78.8125 34.390625 -84.5625 C 43.703125 -90.3125 54.875 -93.1875 67.90625 -93.1875 C 71.28125 -93.1875 74.890625 -92.929688 78.734375 -92.421875 C 82.578125 -91.910156 86.078125 -91.140625 89.234375 -90.109375 C 91.285156 -89.523438 92.3125 -88.0625 92.3125 -85.71875 C 92.3125 -83.8125 91.59375 -82.015625 90.15625 -80.328125 C 88.726562 -78.640625 87.066406 -77.796875 85.171875 -77.796875 C 84.578125 -77.796875 84.132812 -77.832031 83.84375 -77.90625 C 80.03125 -78.789062 76.769531 -79.429688 74.0625 -79.828125 C 71.351562 -80.234375 68.5 -80.4375 65.5 -80.4375 C 56.1875 -80.4375 48.269531 -78.179688 41.75 -73.671875 C 35.238281 -69.171875 30.367188 -63.21875 27.140625 -55.8125 C 23.921875 -48.414062 22.3125 -40.4375 22.3125 -31.875 C 22.3125 -25.644531 23.535156 -20.828125 25.984375 -17.421875 C 28.441406 -14.015625 31.648438 -12.3125 35.609375 -12.3125 C 40.078125 -12.3125 43.992188 -14.140625 47.359375 -17.796875 C 50.734375 -21.460938 53.8125 -27.394531 56.59375 -35.59375 C 59.375 -43.800781 62.117188 -54.941406 64.828125 -69.015625 C 65.273438 -71.066406 66.15625 -72.457031 67.46875 -73.1875 C 68.789062 -73.914062 70.550781 -74.28125 72.75 -74.28125 C 77.945312 -74.28125 80.546875 -72.597656 80.546875 -69.234375 C 80.546875 -68.648438 80.4375 -67.914062 80.21875 -67.03125 C 78.3125 -59.925781 76.570312 -52.066406 75 -43.453125 C 73.425781 -34.847656 72.640625 -28.3125 72.640625 -23.84375 C 72.640625 -19.882812 73.222656 -17.007812 74.390625 -15.21875 C 75.566406 -13.425781 77.363281 -12.53125 79.78125 -12.53125 C 82.125 -12.53125 84.359375 -13.316406 86.484375 -14.890625 C 88.609375 -16.460938 91.28125 -19.15625 94.5 -22.96875 C 95.382812 -23.988281 96.375 -24.5 97.46875 -24.5 C 98.425781 -24.5 99.175781 -24.0625 99.71875 -23.1875 C 100.269531 -22.3125 100.546875 -21.101562 100.546875 -19.5625 C 100.546875 -16.707031 99.851562 -14.4375 98.46875 -12.75 C 94.875 -8.425781 91.351562 -5.128906 87.90625 -2.859375 C 84.46875 -0.585938 80.257812 0.546875 75.28125 0.546875 C 70.144531 0.546875 66 -0.9375 62.84375 -3.90625 C 59.695312 -6.875 57.722656 -11.066406 56.921875 -16.484375 C 51.503906 -5.128906 43.519531 0.546875 32.96875 0.546875 Z M 32.96875 0.546875 "/></g></g></g><g fill="#f5a9b8" fill-opacity="1"><g transform="translate(433.325998, 121.58684)"><g><path d="M 67.6875 -24.5 C 68.644531 -24.5 69.394531 -24.0625 69.9375 -23.1875 C 70.488281 -22.3125 70.765625 -21.101562 70.765625 -19.5625 C 70.765625 -16.632812 70.070312 -14.363281 68.6875 -12.75 C 65.675781 -9.082031 62.375 -5.945312 58.78125 -3.34375 C 55.195312 -0.75 51.644531 0.546875 48.125 0.546875 C 42.5625 0.546875 38.316406 -2.710938 35.390625 -9.234375 C 32.304688 -5.347656 29.609375 -2.742188 27.296875 -1.421875 C 24.992188 -0.109375 22.304688 0.546875 19.234375 0.546875 C 14.765625 0.546875 11.082031 -1.117188 8.1875 -4.453125 C 5.289062 -7.785156 3.84375 -12.125 3.84375 -17.46875 C 3.84375 -23.332031 5.085938 -28.769531 7.578125 -33.78125 C 10.066406 -38.800781 13.488281 -42.90625 17.84375 -46.09375 C 22.207031 -49.28125 27.101562 -51.171875 32.53125 -51.765625 C 33.914062 -65.972656 36.566406 -78.113281 40.484375 -88.1875 C 44.410156 -98.257812 49.5625 -103.296875 55.9375 -103.296875 C 59.082031 -103.296875 61.695312 -101.863281 63.78125 -99 C 65.875 -96.144531 66.921875 -91.828125 66.921875 -86.046875 C 66.921875 -77.835938 64.90625 -68.238281 60.875 -57.25 C 56.84375 -46.257812 51.457031 -34.976562 44.71875 -23.40625 C 45.019531 -19.15625 45.660156 -16.113281 46.640625 -14.28125 C 47.628906 -12.445312 48.894531 -11.53125 50.4375 -11.53125 C 52.414062 -11.53125 54.429688 -12.410156 56.484375 -14.171875 C 58.535156 -15.929688 61.28125 -18.863281 64.71875 -22.96875 C 65.601562 -23.988281 66.59375 -24.5 67.6875 -24.5 Z M 54.71875 -92.53125 C 53.332031 -92.53125 51.941406 -90.054688 50.546875 -85.109375 C 49.160156 -80.160156 47.972656 -73.691406 46.984375 -65.703125 C 45.992188 -57.722656 45.273438 -49.375 44.828125 -40.65625 C 53.035156 -58.53125 57.140625 -72.890625 57.140625 -83.734375 C 57.140625 -86.515625 56.898438 -88.675781 56.421875 -90.21875 C 55.953125 -91.757812 55.382812 -92.53125 54.71875 -92.53125 Z M 23.078125 -10.546875 C 24.472656 -10.546875 25.863281 -11.113281 27.25 -12.25 C 28.644531 -13.382812 30.40625 -15.492188 32.53125 -18.578125 C 31.789062 -22.523438 31.421875 -26.957031 31.421875 -31.875 C 31.421875 -33.625 31.5 -36.476562 31.65625 -40.4375 C 27.625 -39.195312 24.269531 -36.503906 21.59375 -32.359375 C 18.914062 -28.222656 17.578125 -23.628906 17.578125 -18.578125 C 17.578125 -13.222656 19.410156 -10.546875 23.078125 -10.546875 Z M 23.078125 -10.546875 "/></g></g></g><g fill="#f5a9b8" fill-opacity="1"><g transform="translate(489.909271, 121.58684)"><g><path d="M 67.6875 -24.5 C 68.644531 -24.5 69.394531 -24.0625 69.9375 -23.1875 C 70.488281 -22.3125 70.765625 -21.101562 70.765625 -19.5625 C 70.765625 -16.632812 70.070312 -14.363281 68.6875 -12.75 C 65.675781 -9.082031 62.375 -5.945312 58.78125 -3.34375 C 55.195312 -0.75 51.644531 0.546875 48.125 0.546875 C 42.5625 0.546875 38.316406 -2.710938 35.390625 -9.234375 C 32.304688 -5.347656 29.609375 -2.742188 27.296875 -1.421875 C 24.992188 -0.109375 22.304688 0.546875 19.234375 0.546875 C 14.765625 0.546875 11.082031 -1.117188 8.1875 -4.453125 C 5.289062 -7.785156 3.84375 -12.125 3.84375 -17.46875 C 3.84375 -23.332031 5.085938 -28.769531 7.578125 -33.78125 C 10.066406 -38.800781 13.488281 -42.90625 17.84375 -46.09375 C 22.207031 -49.28125 27.101562 -51.171875 32.53125 -51.765625 C 33.914062 -65.972656 36.566406 -78.113281 40.484375 -88.1875 C 44.410156 -98.257812 49.5625 -103.296875 55.9375 -103.296875 C 59.082031 -103.296875 61.695312 -101.863281 63.78125 -99 C 65.875 -96.144531 66.921875 -91.828125 66.921875 -86.046875 C 66.921875 -77.835938 64.90625 -68.238281 60.875 -57.25 C 56.84375 -46.257812 51.457031 -34.976562 44.71875 -23.40625 C 45.019531 -19.15625 45.660156 -16.113281 46.640625 -14.28125 C 47.628906 -12.445312 48.894531 -11.53125 50.4375 -11.53125 C 52.414062 -11.53125 54.429688 -12.410156 56.484375 -14.171875 C 58.535156 -15.929688 61.28125 -18.863281 64.71875 -22.96875 C 65.601562 -23.988281 66.59375 -24.5 67.6875 -24.5 Z M 54.71875 -92.53125 C 53.332031 -92.53125 51.941406 -90.054688 50.546875 -85.109375 C 49.160156 -80.160156 47.972656 -73.691406 46.984375 -65.703125 C 45.992188 -57.722656 45.273438 -49.375 44.828125 -40.65625 C 53.035156 -58.53125 57.140625 -72.890625 57.140625 -83.734375 C 57.140625 -86.515625 56.898438 -88.675781 56.421875 -90.21875 C 55.953125 -91.757812 55.382812 -92.53125 54.71875 -92.53125 Z M 23.078125 -10.546875 C 24.472656 -10.546875 25.863281 -11.113281 27.25 -12.25 C 28.644531 -13.382812 30.40625 -15.492188 32.53125 -18.578125 C 31.789062 -22.523438 31.421875 -26.957031 31.421875 -31.875 C 31.421875 -33.625 31.5 -36.476562 31.65625 -40.4375 C 27.625 -39.195312 24.269531 -36.503906 21.59375 -32.359375 C 18.914062 -28.222656 17.578125 -23.628906 17.578125 -18.578125 C 17.578125 -13.222656 19.410156 -10.546875 23.078125 -10.546875 Z M 23.078125 -10.546875 "/></g></g></g><g fill="#f5a9b8" fill-opacity="1"><g transform="translate(546.492544, 121.58684)"><g><path d="M 13.078125 0.546875 C 10.296875 0.546875 8.335938 -0.914062 7.203125 -3.84375 C 6.066406 -6.769531 5.5 -11.457031 5.5 -17.90625 C 5.5 -27.4375 6.851562 -36.488281 9.5625 -45.0625 C 10.21875 -47.175781 11.296875 -48.726562 12.796875 -49.71875 C 14.304688 -50.707031 16.414062 -51.203125 19.125 -51.203125 C 20.582031 -51.203125 21.601562 -51.019531 22.1875 -50.65625 C 22.78125 -50.289062 23.078125 -49.597656 23.078125 -48.578125 C 23.078125 -47.398438 22.523438 -44.757812 21.421875 -40.65625 C 20.691406 -37.726562 20.109375 -35.164062 19.671875 -32.96875 C 19.234375 -30.769531 18.867188 -28.054688 18.578125 -24.828125 C 20.992188 -31.128906 23.703125 -36.257812 26.703125 -40.21875 C 29.703125 -44.175781 32.648438 -46.992188 35.546875 -48.671875 C 38.441406 -50.359375 41.097656 -51.203125 43.515625 -51.203125 C 48.273438 -51.203125 50.65625 -48.820312 50.65625 -44.0625 C 50.65625 -43.113281 50.328125 -40.804688 49.671875 -37.140625 C 49.085938 -34.210938 48.796875 -32.382812 48.796875 -31.65625 C 48.796875 -29.082031 49.707031 -27.796875 51.53125 -27.796875 C 53.582031 -27.796875 56.222656 -29.410156 59.453125 -32.640625 C 60.398438 -33.585938 61.390625 -34.0625 62.421875 -34.0625 C 63.367188 -34.0625 64.117188 -33.640625 64.671875 -32.796875 C 65.222656 -31.953125 65.5 -30.835938 65.5 -29.453125 C 65.5 -26.742188 64.765625 -24.617188 63.296875 -23.078125 C 61.242188 -20.953125 58.84375 -19.140625 56.09375 -17.640625 C 53.351562 -16.140625 50.441406 -15.390625 47.359375 -15.390625 C 43.472656 -15.390625 40.523438 -16.375 38.515625 -18.34375 C 36.503906 -20.320312 35.5 -23 35.5 -26.375 C 35.5 -27.46875 35.609375 -28.566406 35.828125 -29.671875 C 35.972656 -31.140625 36.046875 -32.128906 36.046875 -32.640625 C 36.046875 -33.804688 35.640625 -34.390625 34.828125 -34.390625 C 33.734375 -34.390625 32.285156 -33.160156 30.484375 -30.703125 C 28.691406 -28.253906 26.914062 -25.015625 25.15625 -20.984375 C 23.40625 -16.953125 21.976562 -12.703125 20.875 -8.234375 C 20.070312 -4.796875 19.140625 -2.472656 18.078125 -1.265625 C 17.015625 -0.0546875 15.347656 0.546875 13.078125 0.546875 Z M 13.078125 0.546875 "/></g></g></g><g fill="#f5a9b8" fill-opacity="1"><g transform="translate(596.48358, 121.58684)"><g><path d="M 54.28125 -24.5 C 55.238281 -24.5 55.988281 -24.0625 56.53125 -23.1875 C 57.082031 -22.3125 57.359375 -21.101562 57.359375 -19.5625 C 57.359375 -16.632812 56.664062 -14.363281 55.28125 -12.75 C 52.5625 -9.445312 48.726562 -6.40625 43.78125 -3.625 C 38.84375 -0.84375 33.550781 0.546875 27.90625 0.546875 C 20.21875 0.546875 14.25 -1.539062 10 -5.71875 C 5.75 -9.894531 3.625 -15.609375 3.625 -22.859375 C 3.625 -27.910156 4.6875 -32.613281 6.8125 -36.96875 C 8.9375 -41.332031 11.882812 -44.796875 15.65625 -47.359375 C 19.425781 -49.921875 23.695312 -51.203125 28.46875 -51.203125 C 32.707031 -51.203125 36.109375 -49.9375 38.671875 -47.40625 C 41.242188 -44.882812 42.53125 -41.460938 42.53125 -37.140625 C 42.53125 -32.085938 40.71875 -27.75 37.09375 -24.125 C 33.46875 -20.5 27.332031 -17.625 18.6875 -15.5 C 20.507812 -12.125 23.988281 -10.4375 29.125 -10.4375 C 32.414062 -10.4375 36.164062 -11.585938 40.375 -13.890625 C 44.59375 -16.203125 48.238281 -19.226562 51.3125 -22.96875 C 52.195312 -23.988281 53.1875 -24.5 54.28125 -24.5 Z M 26.59375 -40.4375 C 23.882812 -40.4375 21.59375 -38.859375 19.71875 -35.703125 C 17.851562 -32.554688 16.921875 -28.75 16.921875 -24.28125 L 16.921875 -24.0625 C 21.242188 -25.09375 24.648438 -26.632812 27.140625 -28.6875 C 29.628906 -30.738281 30.875 -33.117188 30.875 -35.828125 C 30.875 -37.210938 30.488281 -38.328125 29.71875 -39.171875 C 28.957031 -40.015625 27.914062 -40.4375 26.59375 -40.4375 Z M 26.59375 -40.4375 "/></g></g></g><g fill="#f5a9b8" fill-opacity="1"><g transform="translate(639.662658, 121.58684)"><g><path d="M 25.71875 2.96875 C 21.90625 2.96875 18.988281 2.085938 16.96875 0.328125 C 14.957031 -1.429688 13.953125 -3.410156 13.953125 -5.609375 C 13.953125 -7.515625 14.644531 -9.160156 16.03125 -10.546875 C 17.425781 -11.941406 19.484375 -12.640625 22.203125 -12.640625 C 23.148438 -12.640625 24.265625 -12.546875 25.546875 -12.359375 C 26.828125 -12.179688 27.800781 -12.054688 28.46875 -11.984375 C 28.394531 -13.878906 27.972656 -15.671875 27.203125 -17.359375 C 26.429688 -19.046875 25.457031 -20.675781 24.28125 -22.25 C 23.113281 -23.820312 22.015625 -25.195312 20.984375 -26.375 C 18.710938 -22.050781 16.457031 -18.457031 14.21875 -15.59375 C 11.988281 -12.738281 9.554688 -10.03125 6.921875 -7.46875 C 5.597656 -6.15625 4.207031 -5.5 2.75 -5.5 C 1.570312 -5.5 0.617188 -5.914062 -0.109375 -6.75 C -0.835938 -7.59375 -1.203125 -8.640625 -1.203125 -9.890625 C -1.203125 -11.359375 -0.691406 -12.710938 0.328125 -13.953125 L 1.765625 -15.71875 C 5.785156 -20.695312 8.820312 -24.796875 10.875 -28.015625 C 12.125 -30.140625 13.585938 -32.976562 15.265625 -36.53125 C 16.953125 -40.09375 18.601562 -43.773438 20.21875 -47.578125 C 21.613281 -50.804688 24.507812 -52.421875 28.90625 -52.421875 C 30.957031 -52.421875 32.382812 -52.234375 33.1875 -51.859375 C 33.988281 -51.492188 34.390625 -50.910156 34.390625 -50.109375 C 34.390625 -49.671875 34.242188 -48.972656 33.953125 -48.015625 C 33.660156 -47.066406 33.257812 -46.117188 32.75 -45.171875 C 31.425781 -42.523438 30.765625 -40.289062 30.765625 -38.46875 C 30.765625 -37.363281 31.148438 -36.148438 31.921875 -34.828125 C 32.691406 -33.515625 33.882812 -31.867188 35.5 -29.890625 C 37.84375 -26.816406 39.617188 -24.195312 40.828125 -22.03125 C 42.035156 -19.875 42.640625 -17.507812 42.640625 -14.9375 C 42.640625 -14.207031 42.566406 -13.1875 42.421875 -11.875 C 46.003906 -13.257812 50.21875 -16.957031 55.0625 -22.96875 C 55.9375 -23.988281 56.921875 -24.5 58.015625 -24.5 C 58.972656 -24.5 59.722656 -24.0625 60.265625 -23.1875 C 60.816406 -22.3125 61.09375 -21.101562 61.09375 -19.5625 C 61.09375 -16.78125 60.398438 -14.507812 59.015625 -12.75 C 55.347656 -8.207031 51.847656 -5.109375 48.515625 -3.453125 C 45.179688 -1.804688 41.0625 -0.910156 36.15625 -0.765625 C 33.226562 1.722656 29.75 2.96875 25.71875 2.96875 Z M 25.71875 2.96875 "/></g></g></g><g fill="#f5a9b8" fill-opacity="1"><g transform="translate(686.57734, 121.58684)"><g><path d="M 25.71875 2.96875 C 21.90625 2.96875 18.988281 2.085938 16.96875 0.328125 C 14.957031 -1.429688 13.953125 -3.410156 13.953125 -5.609375 C 13.953125 -7.515625 14.644531 -9.160156 16.03125 -10.546875 C 17.425781 -11.941406 19.484375 -12.640625 22.203125 -12.640625 C 23.148438 -12.640625 24.265625 -12.546875 25.546875 -12.359375 C 26.828125 -12.179688 27.800781 -12.054688 28.46875 -11.984375 C 28.394531 -13.878906 27.972656 -15.671875 27.203125 -17.359375 C 26.429688 -19.046875 25.457031 -20.675781 24.28125 -22.25 C 23.113281 -23.820312 22.015625 -25.195312 20.984375 -26.375 C 18.710938 -22.050781 16.457031 -18.457031 14.21875 -15.59375 C 11.988281 -12.738281 9.554688 -10.03125 6.921875 -7.46875 C 5.597656 -6.15625 4.207031 -5.5 2.75 -5.5 C 1.570312 -5.5 0.617188 -5.914062 -0.109375 -6.75 C -0.835938 -7.59375 -1.203125 -8.640625 -1.203125 -9.890625 C -1.203125 -11.359375 -0.691406 -12.710938 0.328125 -13.953125 L 1.765625 -15.71875 C 5.785156 -20.695312 8.820312 -24.796875 10.875 -28.015625 C 12.125 -30.140625 13.585938 -32.976562 15.265625 -36.53125 C 16.953125 -40.09375 18.601562 -43.773438 20.21875 -47.578125 C 21.613281 -50.804688 24.507812 -52.421875 28.90625 -52.421875 C 30.957031 -52.421875 32.382812 -52.234375 33.1875 -51.859375 C 33.988281 -51.492188 34.390625 -50.910156 34.390625 -50.109375 C 34.390625 -49.671875 34.242188 -48.972656 33.953125 -48.015625 C 33.660156 -47.066406 33.257812 -46.117188 32.75 -45.171875 C 31.425781 -42.523438 30.765625 -40.289062 30.765625 -38.46875 C 30.765625 -37.363281 31.148438 -36.148438 31.921875 -34.828125 C 32.691406 -33.515625 33.882812 -31.867188 35.5 -29.890625 C 37.84375 -26.816406 39.617188 -24.195312 40.828125 -22.03125 C 42.035156 -19.875 42.640625 -17.507812 42.640625 -14.9375 C 42.640625 -14.207031 42.566406 -13.1875 42.421875 -11.875 C 46.003906 -13.257812 50.21875 -16.957031 55.0625 -22.96875 C 55.9375 -23.988281 56.921875 -24.5 58.015625 -24.5 C 58.972656 -24.5 59.722656 -24.0625 60.265625 -23.1875 C 60.816406 -22.3125 61.09375 -21.101562 61.09375 -19.5625 C 61.09375 -16.78125 60.398438 -14.507812 59.015625 -12.75 C 55.347656 -8.207031 51.847656 -5.109375 48.515625 -3.453125 C 45.179688 -1.804688 41.0625 -0.910156 36.15625 -0.765625 C 33.226562 1.722656 29.75 2.96875 25.71875 2.96875 Z M 25.71875 2.96875 "/></g></g></g></svg>