<svg xmlns="http://www.w3.org/2000/svg" xmlns:xlink="http://www.w3.org/1999/xlink" width="500" zoomAndPan="magnify" viewBox="0 0 375 374.999991" height="500" preserveAspectRatio="xMidYMid meet" version="1.0"><path fill="#5bcefa" d="M 142.519531 148.617188 C 156.117188 145.003906 175.15625 143.851562 175.15625 143.851562 C 174.984375 150.707031 174.355469 157.710938 174.355469 157.710938 C 179.667969 154.207031 183.039062 147.972656 185.136719 142.191406 C 188.429688 146.929688 209.488281 162.230469 229.472656 165.246094 C 229.472656 165.246094 209.777344 147.605469 208.054688 139.011719 C 208.054688 139.011719 258.289062 130.808594 299.894531 157.945312 C 303.027344 159.988281 297.683594 186.589844 318.355469 210.789062 C 318.355469 210.789062 309.082031 168.152344 318.636719 169.546875 C 352.890625 174.539062 375.03125 215.378906 375.03125 215.378906 C 375.03125 215.378906 363.292969 166.96875 313.773438 152.070312 C 313.773438 152.070312 304.402344 125.5 240.585938 102.546875 C 223.074219 96.246094 243.144531 67.566406 259.15625 42.332031 C 259.15625 42.332031 217.933594 53.933594 187.449219 98.195312 C 187.449219 98.195312 129.472656 112.351562 110.292969 149.839844 C 110.292969 149.839844 110.292969 157.199219 142.519531 148.617188 " fill-opacity="1" fill-rule="nonzero"/><path fill="#f5a9b8" d="M 232.480469 226.570312 C 218.890625 230.183594 199.84375 231.335938 199.84375 231.335938 C 200.015625 224.480469 200.644531 217.476562 200.644531 217.476562 C 195.332031 220.980469 191.964844 227.214844 189.863281 232.996094 C 186.570312 228.257812 165.511719 212.957031 145.535156 209.941406 C 145.535156 209.941406 165.222656 227.582031 166.945312 236.175781 C 166.945312 236.175781 116.710938 244.378906 75.109375 217.242188 C 71.972656 215.199219 77.316406 188.59375 56.648438 164.398438 C 56.648438 164.398438 65.917969 207.035156 56.363281 205.640625 C 22.113281 200.648438 -0.03125 159.816406 -0.03125 159.816406 C -0.03125 159.816406 11.707031 208.21875 61.226562 223.117188 C 61.226562 223.117188 70.597656 249.6875 134.414062 272.640625 C 151.925781 278.941406 131.859375 307.621094 115.84375 332.855469 C 115.84375 332.855469 157.066406 321.253906 187.554688 276.992188 C 187.554688 276.992188 245.527344 262.835938 264.707031 225.347656 C 264.707031 225.347656 264.707031 217.988281 232.480469 226.570312 " fill-opacity="1" fill-rule="nonzero"/></svg>